<svg width="68" height="68" viewBox="0 0 68 68" fill="none" xmlns="http://www.w3.org/2000/svg">
<path d="M30.9738 24.0668C31.1753 23.1631 31.0208 23.5931 29.7207 21.6917C28.5517 19.9852 28.7935 17.5597 27.4095 16.3537C26.5596 15.6146 25.4946 14.7849 21.5272 16.7803C20.1499 17.4724 17.3985 19.7534 14.281 20.7981C11.7716 21.638 13.1624 22.6525 13.6965 22.8406C15.5979 23.5092 18.1141 22.0646 18.1141 22.0646C18.1141 22.0646 14.5061 24.4229 16.6259 24.9806C18.3459 25.4341 20.5127 23.3681 20.5127 23.3681C20.5127 23.3681 18.3896 25.6188 20.1264 26.1967C21.3189 26.5931 23.6873 24.3289 23.6873 24.3289C23.6873 24.3289 22.0311 26.63 22.8307 27.1171C24.0468 27.8562 26.0389 25.9514 26.0389 25.9514C26.0389 25.9514 24.4566 28.2627 25.283 28.6389C26.5192 29.2033 28.3535 27.6177 28.3535 27.6177C28.3535 27.6177 30.611 25.6827 30.9738 24.0668Z" fill="#E0E0E0"/>
<path d="M23.9865 16.6226C23.9865 16.6226 21.823 17.8924 21.0336 18.9137C20.9295 19.048 20.2811 19.6964 20.8522 20.0693C20.9966 20.1633 21.4266 20.1029 21.682 19.9483C22.8443 19.2429 24.9002 17.5699 25.1253 17.6572C25.3504 17.7446 23.2877 19.1018 22.6226 20.7445C22.374 21.3626 22.8577 21.8061 24.1175 21.0637C25.4881 20.2574 26.6673 18.8364 26.8655 18.8431C26.8655 18.8431 26.3145 19.8039 25.6091 20.5631C24.8902 21.3391 24.3829 22.1286 24.9137 22.3772C25.5822 22.6929 27.0267 21.8363 27.0267 21.8363C27.0267 21.8363 26.1063 22.9516 24.9137 23.2036C24.4938 23.2943 24.1645 23.2372 23.963 23.0087C23.6573 22.6594 23.7748 22.1219 23.7748 22.1219C23.1399 22.3738 22.0448 22.7837 21.393 22.2327C20.8858 21.8027 21.5778 20.5429 21.5778 20.5429C21.5778 20.5429 20.3516 21.2215 19.6529 21.0166C19.2901 20.9091 18.7358 20.3851 19.5454 19.2731C20.822 17.5363 23.9865 16.6226 23.9865 16.6226Z" fill="#BDBDBD"/>
<path d="M26.5732 28.8405C27.974 27.0197 29.3749 25.2023 30.7757 23.3815L30.6548 22.8574C30.5943 22.6727 30.0434 22.6491 29.2808 23.0892C28.7702 23.3848 27.8329 24.4464 27.2316 23.8619C26.815 23.4588 28.011 22.0176 28.011 22.0176C27.8464 22.0209 26.5194 22.9078 26.3078 23.798C26.1264 24.5539 26.301 25.4408 28.0076 24.5774C28.058 24.5505 28.1118 24.5203 28.1621 24.4901C27.9471 24.8294 27.7523 25.1855 27.5877 25.5483C27.1107 26.5964 26.8285 27.7184 26.5732 28.8405Z" fill="#BDBDBD"/>
<path d="M39.3418 15.739L39.3658 15.7562L39.3418 15.739Z" fill="url(#paint0_linear_446_2)"/>
<path d="M41.2701 35.7945C37.8939 40.8537 35.0553 46.4269 28.5985 48.1334C28.5314 48.1502 28.4608 48.1301 28.4138 48.0797L17.8653 36.4395C17.5529 36.0934 17.7075 35.5459 18.1509 35.4014C22.4878 33.977 25.1955 30.5841 27.6075 26.966C30.9333 21.9841 33.7821 16.5016 40.0339 14.7043C40.2724 14.6136 40.5512 14.6707 40.7326 14.8689C42.1335 16.4142 52.6987 26.4722 52.7155 26.4923C52.7222 26.4957 43.8602 31.911 41.2701 35.7945Z" fill="#66BB6A"/>
<path d="M31.5215 38.1057C31.293 37.8772 31.0209 37.763 30.7051 37.7664C30.3894 37.7697 29.9795 37.8974 29.4723 38.1493C28.7836 38.5155 28.1856 38.6868 27.6851 38.67C27.1845 38.6499 26.7344 38.4416 26.338 38.0418C25.9315 37.6353 25.7165 37.1818 25.6963 36.6846C25.6728 36.1875 25.8441 35.7071 26.2103 35.2435L25.5687 34.5985C25.5234 34.5523 25.498 34.4902 25.498 34.4255C25.498 34.3608 25.5234 34.2987 25.5687 34.2525L25.7769 34.0442C25.871 33.9501 26.0255 33.9501 26.123 34.0442L26.768 34.6925C27.2416 34.3331 27.7422 34.1853 28.2662 34.2457C28.7365 34.3029 29.2001 34.5346 29.6537 34.9512C29.741 35.0318 29.741 35.1729 29.657 35.2569L29.274 35.6399C29.1934 35.7205 29.0624 35.7205 28.9784 35.6432C28.6761 35.3812 28.3637 35.23 28.0445 35.1964C27.6716 35.1561 27.3424 35.2771 27.0602 35.5593C26.7646 35.8549 26.6134 36.1572 26.6101 36.4629C26.6067 36.772 26.7411 37.0643 27.0132 37.3364C27.2651 37.5917 27.5507 37.7093 27.8665 37.6958C28.1823 37.6824 28.5887 37.548 29.0926 37.2927C29.5966 37.0374 30.0232 36.8795 30.386 36.8157C30.7455 36.7518 31.0747 36.7686 31.3703 36.8627C31.6659 36.9601 31.9448 37.1382 32.2068 37.4002C32.6233 37.8201 32.835 38.2837 32.8383 38.791C32.8417 39.2982 32.6401 39.8021 32.2303 40.3027L32.7678 40.8402C32.8619 40.9343 32.8619 41.0888 32.7678 41.1862L32.5629 41.3911C32.4688 41.4852 32.3143 41.4852 32.2169 41.3911L31.6794 40.8536C31.1755 41.2702 30.648 41.4684 30.1005 41.4415C29.6133 41.418 29.1464 41.2097 28.703 40.8167C28.6817 40.7974 28.6646 40.774 28.6528 40.7478C28.641 40.7216 28.6348 40.6933 28.6345 40.6646C28.6342 40.6359 28.6398 40.6074 28.651 40.581C28.6622 40.5545 28.6787 40.5307 28.6996 40.511L29.0893 40.1246C29.1665 40.0474 29.2908 40.0407 29.3748 40.1112C29.6738 40.3699 29.9829 40.5009 30.302 40.5076C30.6682 40.5143 31.0176 40.3497 31.3501 40.0171C31.676 39.6946 31.854 39.3587 31.8843 39.0194C31.9078 38.6801 31.7902 38.3744 31.5215 38.1057Z" fill="white"/>
<path d="M32.3816 40.4675L31.6761 40.8605L26.2238 35.2638L26.0391 35.0757L26.768 34.696L32.2203 40.3062L32.3816 40.4675Z" fill="white"/>
<path opacity="0.5" d="M37.4907 32.1462C40.1661 32.1462 42.3349 29.9774 42.3349 27.302C42.3349 24.6266 40.1661 22.4578 37.4907 22.4578C34.8153 22.4578 32.6465 24.6266 32.6465 27.302C32.6465 29.9774 34.8153 32.1462 37.4907 32.1462Z" fill="#2E7D32"/>
<path d="M42.9602 38.3442C41.2301 40.9376 38.7374 45.886 35.3041 48.6071C32.153 51.1064 28.1789 52.3393 28.1789 52.3393L17.2441 39.5334L17.6977 36.0195L28.4208 48.083C28.4645 48.13 28.5316 48.1536 28.5955 48.1368C35.0555 46.4302 37.8942 40.857 41.2704 35.7978C43.8605 31.9143 47.7338 27.7756 52.7191 26.499C53.1155 26.9357 52.9409 30.5975 52.5075 30.7419C48.0899 32.2066 45.3789 34.7127 42.9602 38.3442Z" fill="#2E7D32"/>
<path d="M38.4888 40.0574L39.5033 43.8031C39.5033 43.8031 42.5939 39.2814 43.0945 38.1862L41.9724 34.8101C40.4742 36.6745 38.4888 40.0574 38.4888 40.0574Z" fill="#FFC06C"/>
<path d="M38.2268 17.7143C38.4855 18.0872 38.939 18.4735 39.668 18.6986C39.9267 18.7792 40.1988 18.8196 40.4709 18.8196C41.0487 18.8196 41.5325 18.6415 41.8583 18.4769C42.6746 19.2966 43.6959 20.2943 44.6836 21.2618C45.6511 22.2092 46.6454 23.1834 47.455 23.993C47.193 24.3928 46.9847 24.9974 47.0721 25.8138C47.1124 26.19 47.3778 26.573 47.66 26.8854C45.8728 28.0343 42.4429 30.5874 38.9256 35.089C38.1832 36.0397 37.4575 37.0946 36.7588 38.1124C35.0186 40.6454 33.2214 43.259 30.8295 44.8581C30.5473 44.3978 30.0266 43.8402 29.0961 43.6084C28.871 43.5513 28.6493 43.5244 28.4376 43.5244C27.8396 43.5244 27.3693 43.7461 27.0334 44.0081L21.9607 38.1763C22.3874 37.8437 22.7871 37.276 22.8275 36.3992C22.8476 35.9893 22.6293 35.6164 22.3807 35.3342C24.8532 33.5034 27.4634 30.5841 28.8676 28.4878C29.0725 28.1821 29.2842 27.863 29.5025 27.5338C31.6996 24.2181 34.676 19.7434 38.2268 17.7143ZM38.4922 16.9282C34.2191 19.0446 30.8161 24.5574 28.3939 28.1653C26.8083 30.527 23.9428 33.6075 21.4736 35.2704C21.4736 35.2704 22.2832 35.8449 22.2564 36.3656C22.1892 37.7631 21.0537 37.9982 21.0537 37.9982L27.0166 44.8514C27.0166 44.8514 27.4533 44.0854 28.4343 44.0854C28.5921 44.0854 28.7668 44.1056 28.955 44.1526C30.3054 44.4885 30.5775 45.6778 30.5775 45.6778C34.3871 43.4606 36.6882 38.8683 39.369 35.4317C43.0072 30.7722 46.6253 28.1317 48.5838 26.9728C48.5838 26.9728 47.6835 26.2438 47.6331 25.7466C47.4954 24.4398 48.2344 23.9695 48.2344 23.9695C46.5043 22.2192 43.6623 19.4948 41.9423 17.7513C41.9423 17.7513 41.3175 18.2417 40.4675 18.2417C40.266 18.2417 40.051 18.2149 39.8326 18.1477C38.5964 17.7748 38.4922 16.9282 38.4922 16.9282Z" fill="#2E7D32"/>
<path d="M30.0802 23.1934L26.8115 28.135L38.4887 40.0574C38.4887 40.0574 40.3968 37.0407 41.969 34.8101L30.0802 23.1934Z" fill="#FFECB3"/>
<path opacity="0.68" d="M42.4425 36.2278C42.4425 36.2278 40.1379 37.4002 39.5097 40.9746C39.2712 42.325 39.5064 43.8032 39.5064 43.8032L41.4078 40.8772L42.7683 36.809L42.4425 36.2278Z" fill="#D69136"/>
<path d="M41.781 37.0038C42.4495 36.3622 42.6712 36.164 44.7608 36.0128C46.8234 35.8617 47.7708 34.958 50.3776 35.4988C51.4795 35.7273 53.2264 36.7351 52.7829 40.7529C52.615 42.2848 52.6553 45.8256 53.3776 49.0338C53.9587 51.6138 52.3697 50.952 51.933 50.5925C50.3743 49.3126 50.3071 46.4135 50.3071 46.4135C50.3071 46.4135 50.1593 50.7202 48.5837 49.1984C47.3072 47.9621 47.9488 45.0395 47.9488 45.0395C47.9488 45.0395 47.1224 48.0226 45.7283 46.8334C44.7708 46.017 45.483 42.8189 45.483 42.8189C45.483 42.8189 44.3711 45.4292 43.5447 44.9958C42.2815 44.3374 42.8795 41.6465 42.8795 41.6465C42.8795 41.6465 41.7239 44.1963 40.9714 43.6823C39.8493 42.9163 40.2558 40.5278 40.2558 40.5278C40.2558 40.5278 40.5851 38.1494 41.781 37.0038Z" fill="#E0E0E0"/>
<path d="M51.755 38.633C51.755 38.633 51.9162 40.7091 51.7718 41.9487C51.6811 42.718 51.6408 43.4235 50.9353 43.3193C50.764 43.2925 50.3642 42.9599 50.2937 41.68C50.2198 40.3228 50.5019 38.5289 50.3037 38.3945C50.1055 38.2568 50.0955 40.6117 49.1145 42.0864C48.745 42.6407 48.1235 42.7012 48.0261 41.2399C47.9186 39.6509 48.7416 37.7696 48.6241 37.6084C48.6241 37.6084 47.9287 38.465 47.5255 39.6778C47.1224 40.8905 46.9444 41.4616 46.4707 41.1122C45.6208 40.4874 46.8671 37.9981 46.8671 37.9981C46.8671 37.9981 45.9534 38.8144 45.5569 39.9566C45.305 40.6822 45.4427 41.8748 46.0877 42.1771C46.8469 42.5332 47.2904 41.8983 47.2904 41.8983C47.2904 41.8983 47.4516 43.9307 48.4426 43.8871C49.3934 43.8434 49.6352 42.7718 49.6352 42.7718C49.6352 42.7718 49.5949 43.8064 50.5557 44.5153C51.0226 44.8613 52.1077 44.9184 52.2421 43.5478C52.4605 41.3239 51.755 38.633 51.755 38.633Z" fill="#BDBDBD"/>
<path d="M43.9376 37.9041C43.7326 37.8537 43.437 38.7775 43.0675 39.2982C42.9264 39.4931 42.624 39.8928 42.1605 39.8592C41.6969 39.8256 42.063 38.4617 41.9555 38.5356C41.848 38.6095 41.4147 39.3385 41.586 40.1851C41.633 40.4203 41.8715 40.6991 42.1067 40.736C42.9869 40.8771 43.3732 39.7954 43.3732 39.7954C43.3732 39.7954 43.2422 41.0888 44.1122 41.2231C45.1637 41.3844 45.3787 39.7282 45.2847 39.6678C45.1906 39.6073 44.8513 40.7092 44.1022 40.2388C43.4874 39.8492 44.1425 37.9578 43.9376 37.9041Z" fill="#BDBDBD"/>
<path d="M17.2441 39.53L28.1386 52.2923C28.1386 52.2923 28.6257 51.57 28.7366 50.4446C28.834 49.4637 28.4913 48.1603 28.4913 48.1603L17.6977 36.0161L17.2441 39.53Z" fill="#206022"/>
<circle cx="34" cy="34" r="33.25" stroke="#66BB6A" stroke-width="1.5"/>
<defs>
<linearGradient id="paint0_linear_446_2" x1="39.3543" y1="15.7482" x2="39.3543" y2="15.7482" gradientUnits="userSpaceOnUse">
<stop stop-color="#43A047"/>
<stop offset="0.999" stop-color="#66BB6A"/>
</linearGradient>
</defs>
</svg>
