<svg width="50" height="36" viewBox="0 0 50 36" fill="none" xmlns="http://www.w3.org/2000/svg">
<path d="M3.10303 1.48584C1.58772 2.64365 0.807721 5.8774 0.645221 10.4518C0.482721 15.0262 1.34397 17.5124 1.6446 18.264C1.94522 19.0155 4.20397 20.1368 6.7471 22.103C8.61178 23.5452 23.253 33.738 24.9877 34.5302C27.7462 35.7855 29.5012 33.2465 29.5012 33.2465C29.5012 33.2465 30.9637 34.0833 32.3774 33.2465C34.104 32.2227 33.9008 30.9511 33.9008 30.9511C33.9008 30.9511 35.6802 31.3615 36.5862 30.5611C37.4921 29.7608 37.8943 27.8393 37.8943 27.8393C37.8943 27.8393 39.0927 28.3837 40.1083 27.4777C41.124 26.5718 41.8958 25.3449 40.8193 23.6712C39.7427 21.9974 35.3633 16.7243 34.2258 15.2455C33.0883 13.7668 30.1633 5.33303 27.348 4.49209C24.5327 3.65115 21.754 3.86646 18.8127 4.73584C15.8715 5.60521 13.1212 5.52396 9.85491 4.59771C6.58866 3.67146 3.10303 1.48584 3.10303 1.48584Z" fill="#FFCA28"/>
<path d="M49.0945 8.65626C48.4932 4.6547 47.7011 1.93282 47.112 1.2747C46.4376 0.527199 45.2798 2.01407 42.8301 2.88345C40.3804 3.75282 35.9686 4.08189 35.9686 4.08189C35.9686 4.08189 28.8714 3.8747 26.2145 4.76845C25.2151 5.10157 15.3554 9.25751 15.0589 11.0003C14.9329 11.7397 15.7536 13.3931 17.7929 13.5597C21.1039 13.8319 25.2436 10.9475 25.2436 10.9475C25.2923 10.8663 25.7839 10.7281 28.0467 10.7281C30.3095 10.7281 32.9379 12.2109 33.1045 12.4872C34.7945 15.27 36.3992 17.22 37.947 19.105C39.0804 20.4822 41.7454 24.1263 41.7454 24.1263C41.7454 24.1263 44.7395 20.5878 45.5033 19.7713C46.267 18.9547 49.0986 16.8869 49.0986 16.8869C49.0986 16.8869 49.7242 12.8406 49.0945 8.65626Z" fill="#F5B22E"/>
<path d="M9.80234 26.8684C9.80234 26.8684 8.72172 27.2503 7.73453 25.8324C6.74734 24.4146 7.57203 23.4396 8.57953 22.6474C9.58703 21.8553 10.9195 21.4734 11.7117 22.0746C12.4998 22.6718 12.8289 23.7078 12.8289 23.7078C12.8289 23.7078 14.462 22.3753 15.9327 23.1918C17.4033 24.0084 17.3098 25.4953 17.3098 25.4953C17.3098 25.4953 18.7358 24.6299 20.2348 25.4953C21.7339 26.3606 20.9986 28.8549 20.9986 28.8549C20.9986 28.8549 22.7414 28.9078 23.0664 30.6262C23.3914 32.3406 22.9852 34.1646 21.023 34.4937C19.0648 34.8187 17.9192 32.9824 17.9192 32.9824C17.9192 32.9824 15.9611 34.1646 14.5148 33.1896C13.0686 32.2146 13.2352 30.1671 13.2352 30.1671C13.2352 30.1671 11.468 30.4596 10.4727 29.5334C9.47734 28.6071 9.80234 26.8684 9.80234 26.8684Z" fill="#FFCA28"/>
<path d="M23.4926 33.1369C23.9882 32.2187 24.1101 31.1625 23.7851 30.2931C23.5495 29.6594 22.9848 28.8631 21.6686 28.4772C21.6807 28.4528 21.6929 28.4325 21.7051 28.4122L21.6686 28.3919C21.8432 27.8597 21.8839 27.3519 21.8026 26.7425C21.6726 25.7837 21.1201 25.0647 20.2467 24.7275C19.5073 24.4391 18.6136 24.4634 17.8986 24.7559C17.8214 23.9231 17.4232 23.33 16.6554 22.8628C15.1198 21.9284 13.9742 22.5378 13.2714 22.9441C12.9586 22.0462 12.1826 21.6034 11.6911 21.4044C11.1061 21.1687 9.67606 20.8641 7.97387 22.3834L8.84324 23.1797C10.0173 22.1803 10.8948 22.3428 11.2564 22.4891C12.1907 22.8628 12.1582 23.5575 12.1542 23.8784C12.1501 24.1953 12.1014 24.5325 11.3254 25.2516C10.3667 26.1412 9.68824 26.1453 9.68824 26.1453C9.00168 26.2266 8.38824 25.7066 8.10793 25.1906C8.01043 25.0078 7.72199 24.3822 8.10387 23.9312C8.19324 23.8297 8.37606 23.5453 8.99762 23.0578L8.14043 22.2453C7.76668 22.5541 7.29949 23.0741 7.21012 23.1756C6.63731 23.85 6.58856 24.8372 7.08012 25.7472C7.48637 26.5069 8.30699 27.2219 9.31043 27.3194C9.23731 28.2944 9.58262 29.1962 10.3179 29.9072C11.1061 30.6709 12.0851 30.7522 12.7676 30.6912C12.7757 31.3737 12.9261 32.3325 13.5923 33.0191C14.9167 34.38 16.5701 34.0347 17.6426 33.4619C18.0286 34.2459 18.7232 34.8066 19.6048 35.0137C19.8526 35.0706 20.1045 35.0991 20.3523 35.0991C21.2786 35.0991 22.477 35.0991 23.6551 32.7956C23.2895 32.5681 22.9401 32.3894 22.6314 32.2066C21.7336 33.9859 20.5432 34.0306 19.8689 33.8722C19.2554 33.7259 18.8045 33.3116 18.5973 32.7144C19.5764 31.6175 20.267 30.7522 21.0348 29.5294C21.9042 29.7122 22.4607 30.1062 22.6842 30.7075C22.8792 31.2316 22.802 31.9059 22.5014 32.5072L23.4926 33.1369ZM13.2064 29.4075C13.1942 29.4116 11.9429 29.8422 11.1304 29.0581C10.5901 28.5341 10.3789 27.9003 10.5048 27.1772C11.9754 26.1331 13.247 24.5 13.5111 24.1466C13.6045 24.0978 14.8517 23.1106 16.0461 23.8581C16.5986 24.2034 16.822 24.9997 16.7082 25.5603C16.5945 26.1209 16.3345 26.7994 15.262 27.945C14.2139 29.0622 13.2064 29.4075 13.2064 29.4075ZM20.4254 28.3634C20.1532 28.8997 19.3082 30.6791 17.5532 32.1253C17.3542 32.2878 15.6764 33.4659 14.4332 32.1903C13.9864 31.7312 13.9173 30.9431 13.9417 30.4312C14.7745 29.7772 16.432 28.3147 17.7157 26.2225C18.2154 25.6578 19.1864 25.5644 19.8242 25.8122C20.2954 25.995 20.5717 26.3566 20.6407 26.8928C20.7098 27.3884 20.6976 27.8272 20.4254 28.3634Z" fill="#C18306"/>
<path d="M30.8296 34.1201C30.4396 34.1201 30.0577 34.0591 29.7002 33.9332C28.7821 33.6122 25.2274 30.9066 24.618 29.9682C24.4433 29.696 24.5205 29.3344 24.7886 29.1597C25.0608 28.9851 25.4224 29.0622 25.5971 29.3304C26.0196 29.9804 29.3346 32.5641 30.0861 32.8282C30.7605 33.0638 31.6258 32.9419 32.2839 32.5194C32.7024 32.2472 33.2224 31.7354 33.2996 30.8376C33.328 30.5166 33.6124 30.2769 33.9333 30.3054C34.2542 30.3338 34.4939 30.6182 34.4655 30.9391C34.3721 32.0076 33.8236 32.9176 32.9217 33.5026C32.2978 33.9043 31.5717 34.1186 30.8296 34.1201Z" fill="#C18306"/>
<path d="M35.0912 31.4712C34.2909 31.4712 33.4297 31.2193 32.3897 30.6871C31.11 30.0371 29.424 28.3674 28.1931 27.1528C27.9453 26.909 27.7219 26.6856 27.5309 26.5028C27.2994 26.2793 27.2912 25.9096 27.5147 25.674C27.7381 25.4384 28.1078 25.4343 28.3434 25.6578C28.5384 25.8446 28.7659 26.0681 29.0178 26.3199C30.1269 27.4168 31.8047 29.0743 32.9219 29.6431C34.3315 30.3621 35.0547 30.354 35.5828 30.2524C36.5497 30.0615 37.1509 29.1556 37.1469 27.8799C37.1469 27.7248 37.2085 27.576 37.3182 27.4663C37.4279 27.3566 37.5767 27.2949 37.7319 27.2949C37.887 27.2949 38.0358 27.3566 38.1455 27.4663C38.2552 27.576 38.3169 27.7248 38.3169 27.8799C38.3209 29.7203 37.3337 31.1056 35.8062 31.4062C35.5706 31.4509 35.3309 31.4712 35.0912 31.4712Z" fill="#C18306"/>
<path d="M38.451 28.599C38.1381 28.599 37.8213 28.5462 37.5166 28.4284C35.8713 27.7865 33.6775 25.7634 30.8094 22.2412C30.7178 22.1199 30.6769 21.9678 30.6952 21.817C30.7135 21.6661 30.7897 21.5283 30.9076 21.4324C31.0256 21.3366 31.1761 21.2903 31.3275 21.3032C31.4789 21.3162 31.6194 21.3874 31.7194 21.5018C34.4169 24.8168 36.5091 26.779 37.9431 27.3356C38.6622 27.6159 39.7306 27.2096 40.3725 26.4134C40.6731 26.0396 41.1038 25.2962 40.5838 24.504C39.4341 22.7531 38.2722 21.3393 37.0413 19.8443C35.465 17.9268 33.836 15.9443 32.1013 13.0925C31.9347 12.8162 32.02 12.4546 32.2963 12.2881C32.5725 12.1215 32.9341 12.2068 33.1006 12.4831C34.7906 15.2659 36.3953 17.2159 37.9431 19.1009C39.1944 20.6203 40.3725 22.0584 41.5588 23.8621C42.2291 24.8778 42.1235 26.1087 41.2785 27.1528C40.6285 27.9531 39.5438 28.599 38.451 28.599Z" fill="#C18306"/>
<path d="M39.4709 15.9078C39.4465 15.9078 39.4262 15.9078 39.4018 15.9037C35.1037 15.404 32.9465 13.7384 31.5205 12.6375C30.8177 12.0972 30.2652 11.6665 29.7371 11.5893C28.2421 11.3618 26.7634 11.1993 25.1709 11.6625C25.0205 11.7072 24.5737 11.9184 24.0943 12.1459C22.6277 12.8406 20.4137 13.8928 18.7846 14.0634C17.5171 14.1975 16.3837 13.8765 15.5915 13.1656C14.9496 12.5887 14.584 11.7925 14.584 10.98C14.584 9.55403 16.3877 8.71309 17.578 8.16059C18.2321 7.8559 19.1218 7.35621 20.0602 6.82809C21.7015 5.9059 23.5621 4.85778 24.9271 4.42715C27.1696 3.72028 33.0805 3.50903 34.9737 3.48871C39.219 3.44809 42.7087 2.25778 45.3615 0.892775C45.4712 0.8359 45.9546 0.584025 46.3771 0.68965C46.9662 0.8359 47.1124 1.27871 47.1124 1.27871C44.2159 3.00528 40.259 4.61403 34.9899 4.66684C32.6662 4.68715 27.2387 4.93496 25.2887 5.5484C24.0374 5.94246 22.2337 6.95809 20.6412 7.8559C19.6824 8.39621 18.7765 8.90809 18.0777 9.22903C17.383 9.54996 15.758 10.3056 15.758 10.9881C15.758 11.4675 15.9855 11.9468 16.3755 12.3043C16.9159 12.7918 17.7324 13.0072 18.6627 12.9097C20.0927 12.7593 22.2824 11.7193 23.5946 11.0978C24.2568 10.7809 24.6143 10.6143 24.8459 10.5493C26.8162 9.97246 28.6809 10.2528 29.9118 10.4397C30.7365 10.5656 31.4312 11.1018 32.2355 11.7193C33.6412 12.804 35.5627 14.2868 39.5399 14.75C39.8609 14.7865 40.0924 15.079 40.0559 15.4C40.0193 15.6884 39.7674 15.9078 39.4709 15.9078Z" fill="#C18306"/>
<path d="M41.5059 23.785L40.9087 22.9075C41.3637 23.1513 42.3996 22.9644 43.7118 21.116C44.5446 19.9419 46.1006 17.5735 49.0581 16.3425C49.0581 16.3425 49.2815 17.4638 48.6153 17.9188C46.6084 19.3 45.3449 20.8357 44.6665 21.7944C43.5534 23.3666 42.5296 24.3091 41.9446 24.7803C41.9446 24.7803 41.8715 24.3091 41.5059 23.785Z" fill="#C18306"/>
<path d="M26.7143 35.3388C25.2559 35.3388 23.8462 34.5751 23.1353 34.1891C23.0174 34.1241 22.9159 34.0713 22.8306 34.0266L23.6959 32.0522C23.6959 32.0522 23.9071 33.2304 24.8009 33.6935C26.2715 34.4613 27.5918 34.571 28.6643 33.1491L29.5987 33.856C28.7578 34.9732 27.7218 35.3388 26.7143 35.3388Z" fill="#C18306"/>
<path d="M7.39703 23.5087C6.05641 22.0949 4.41109 20.7543 2.59922 19.5843C2.50984 19.5274 2.01828 19.2106 1.77859 18.784C1.40484 18.1218 1.49422 17.5571 1.49422 17.5571C4.06578 18.9871 6.42203 20.7787 8.24609 22.7043L7.39703 23.5087Z" fill="#C18306"/>
<path d="M15.0834 5.9546C10.2653 5.9546 5.81682 4.11022 2.61963 1.96522C2.61963 1.96522 2.78619 1.62804 3.10307 1.48585C3.54588 1.28679 3.88713 1.39647 3.93588 1.42491C6.90557 3.26929 10.8421 4.78054 15.0793 4.78054H15.1078C16.3224 4.78054 17.9556 4.29304 18.9306 4.0046C19.1134 3.95179 19.2759 3.90304 19.4181 3.86241C21.8149 3.18397 24.3946 3.1921 28.0428 3.88272L27.8234 5.03241C24.3662 4.37835 21.9449 4.36616 19.7349 4.98772C19.6009 5.02429 19.4424 5.07304 19.2637 5.12585C18.2278 5.4346 16.4931 5.95054 15.1118 5.95054C15.1037 5.9546 15.0915 5.9546 15.0834 5.9546Z" fill="#C18306"/>
<path d="M36.647 17.5085C36.647 17.5085 36.3221 16.6513 36.8664 16.1679C37.5042 15.5992 38.2192 15.8023 38.7149 15.8104C38.7149 15.8104 37.7521 15.5585 36.5252 15.067C35.0017 14.4535 33.9536 13.6938 33.9536 13.6938C33.9536 13.6938 34.2258 14.2382 35.0708 15.5179C35.9117 16.7976 36.647 17.5085 36.647 17.5085Z" fill="#C18306"/>
</svg>
